<svg width="32" height="32" viewBox="0 0 32 32" fill="none" xmlns="http://www.w3.org/2000/svg">
<path d="M6.66667 28C5.93333 28 5.30578 27.7391 4.784 27.2173C4.26222 26.6956 4.00089 26.0676 4 25.3333V6.66667C4 5.93333 4.26133 5.30578 4.784 4.784C5.30667 4.26222 5.93422 4.00089 6.66667 4H18.5667L15.9 6.66667H6.66667V25.3333H25.3333V16.0667L28 13.4V25.3333C28 26.0667 27.7391 26.6947 27.2173 27.2173C26.6956 27.74 26.0676 28.0009 25.3333 28H6.66667ZM12 20V14.3333L24.2333 2.1C24.5 1.83333 24.8 1.63333 25.1333 1.5C25.4667 1.36667 25.8 1.3 26.1333 1.3C26.4889 1.3 26.828 1.36667 27.1507 1.5C27.4733 1.63333 27.7676 1.83333 28.0333 2.1L29.9 4C30.1444 4.26667 30.3333 4.56133 30.4667 4.884C30.6 5.20667 30.6667 5.53422 30.6667 5.86667C30.6667 6.19911 30.6058 6.52711 30.484 6.85067C30.3622 7.17422 30.1676 7.46844 29.9 7.73333L17.6667 20H12ZM14.6667 17.3333H16.5333L24.2667 9.6L23.3333 8.66667L22.3667 7.73333L14.6667 15.4333V17.3333Z" fill="white"/>
</svg>
